<?xml version="1.0" encoding="UTF-8" standalone="no"?>
<svg xmlns="http://www.w3.org/2000/svg" width="1706.68" height="1267.93" viewBox="0 0 1706.68 1267.93">
  <g id="Layer_x0020_1" transform="translate(-646.66 -866.03)">
    <path id="Path_298" data-name="Path 298" d="M673.33,1605.88h334.86a26.669,26.669,0,0,1,26.67,26.67v378.24a26.669,26.669,0,0,1-26.67,26.67H673.33a26.669,26.669,0,0,1-26.67-26.67V1632.55A26.669,26.669,0,0,1,673.33,1605.88Zm308.19,53.34H700v324.9H981.52Zm176.8-53.34h136.75q9.42-8.97,19.49-17,8.55-6.825,17.73-13.09V1408.34a26.669,26.669,0,0,1,26.67-26.67h282.09a26.669,26.669,0,0,1,26.67,26.67v167.45q9.165,6.255,17.73,13.09,10.05,8.025,19.5,17H1841.7a26.669,26.669,0,0,1,26.67,26.67v378.24a26.669,26.669,0,0,1-26.67,26.67H1704.92a297.387,297.387,0,0,1-409.82,0H1158.32a26.669,26.669,0,0,1-26.67-26.67V1632.55a26.669,26.669,0,0,1,26.67-26.67Zm147.59,53.34H1184.99v324.9h120.94a26.6,26.6,0,0,1,19.1,8.05l-.04.07a244.038,244.038,0,0,0,348.75,1.31,26.6,26.6,0,0,1,20.35-9.43h120.94v-324.9H1694.11a26.569,26.569,0,0,1-19.1-8.06l.04-.07a248.31,248.31,0,0,0-46.28-37.19,26.664,26.664,0,0,1-14.39-23.68V1435H1385.63v155.21a26.655,26.655,0,0,1-12.77,22.76l-.04-.05a248.325,248.325,0,0,0-46.55,36.84,26.6,26.6,0,0,1-20.36,9.44Zm685.91-53.34h334.85a26.669,26.669,0,0,1,26.67,26.67v378.24a26.669,26.669,0,0,1-26.67,26.67H1991.82a26.669,26.669,0,0,1-26.67-26.67V1632.55a26.669,26.669,0,0,1,26.67-26.67Zm308.19,53.34H2018.49v324.9h281.52Z" fill="#250e1e"/>
    <path id="Path_299" data-name="Path 299" d="M1083.25,1509.37c55.95,0,101.73,45.81,101.73,101.73v421.13c0,55.92-45.86,101.73-101.73,101.73-55.92,0-101.73-45.86-101.73-101.73V1611.1C981.52,1555.15,1027.33,1509.37,1083.25,1509.37Zm0,53.34a48.493,48.493,0,0,0-48.39,48.39v421.13a48.39,48.39,0,0,0,96.78,0V1611.1a48.493,48.493,0,0,0-48.39-48.39Z" fill="#250e1e"/>
    <path id="Path_300" data-name="Path 300" d="M1916.75,1509.37c55.95,0,101.73,45.81,101.73,101.73v421.13c0,55.92-45.86,101.73-101.73,101.73-55.92,0-101.73-45.86-101.73-101.73V1611.1C1815.02,1555.15,1860.83,1509.37,1916.75,1509.37Zm0,53.34a48.493,48.493,0,0,0-48.39,48.39v421.13a48.39,48.39,0,0,0,96.78,0V1611.1a48.493,48.493,0,0,0-48.39-48.39Z" fill="#250e1e"/>
    <path id="Path_301" data-name="Path 301" d="M1269.94,1268.58h460.13a83.376,83.376,0,0,1,83.2,83.21h0a83.376,83.376,0,0,1-83.2,83.21H1269.94a83.475,83.475,0,0,1-83.21-83.21h0a83.376,83.376,0,0,1,83.21-83.21Zm460.13,53.34H1269.94a30.012,30.012,0,0,0-29.87,29.87h0a29.988,29.988,0,0,0,29.87,29.87h460.13a30.012,30.012,0,0,0,29.86-29.87h0a30.012,30.012,0,0,0-29.86-29.87Z" fill="#250e1e"/>
    <path id="Path_302" data-name="Path 302" d="M1424.8,1268.58h150.4v-54.83H1424.8Zm177.07,53.34H1398.13a26.669,26.669,0,0,1-26.67-26.67V1187.08a26.669,26.669,0,0,1,26.67-26.67h203.74a26.669,26.669,0,0,1,26.67,26.67v108.17A26.669,26.669,0,0,1,1601.87,1321.92Z" fill="#250e1e"/>
    <path id="Path_303" data-name="Path 303" d="M1473.33,1187.08a26.67,26.67,0,0,0,53.34,0v-181.3a26.67,26.67,0,0,0-53.34,0Z" fill="#250e1e"/>
    <path id="Path_304" data-name="Path 304" d="M1269.94,866.03h460.13a83.376,83.376,0,0,1,83.2,83.21h0a83.376,83.376,0,0,1-83.2,83.21H1269.94a83.475,83.475,0,0,1-83.21-83.21h0a83.376,83.376,0,0,1,83.21-83.21Zm460.13,53.34H1269.94a30.012,30.012,0,0,0-29.87,29.87h0a29.988,29.988,0,0,0,29.87,29.87h460.13a30.012,30.012,0,0,0,29.86-29.87h0a30.012,30.012,0,0,0-29.86-29.87Z" fill="#250e1e"/>
    <path id="Path_305" data-name="Path 305" d="M1730.07,919.37H1269.94a29.87,29.87,0,0,0,0,59.74h460.13a29.87,29.87,0,0,0,0-59.74Z" fill="#ffda46" fill-rule="evenodd"/>
    <path id="Path_306" data-name="Path 306" d="M1601.87,1321.92H1269.94a29.87,29.87,0,0,0,0,59.74h460.13a29.87,29.87,0,0,0,0-59.74Z" fill="#ffffff" fill-rule="evenodd"/>
    <path id="Path_307" data-name="Path 307" d="M1424.8,1268.58h150.4v-54.83H1424.8Z" fill="#ffffff" fill-rule="evenodd"/>
    <path id="Path_308" data-name="Path 308" d="M1614.37,1435H1385.62v155.21a26.655,26.655,0,0,1-12.77,22.76l-.04-.05a248.325,248.325,0,0,0-46.55,36.84,26.6,26.6,0,0,1-20.36,9.44H1184.98v324.9h120.94a26.6,26.6,0,0,1,19.1,8.05l-.04.07a244.038,244.038,0,0,0,348.75,1.31,26.6,26.6,0,0,1,20.35-9.43h120.94V1659.2H1694.1a26.569,26.569,0,0,1-19.1-8.06l.04-.07a248.31,248.31,0,0,0-46.28-37.19,26.664,26.664,0,0,1-14.39-23.68V1434.98Z" fill="#ffffff" fill-rule="evenodd"/>
    <path id="Path_309" data-name="Path 309" d="M1131.65,2010.79V1611.11a48.39,48.39,0,0,0-96.78,0v421.13a48.39,48.39,0,0,0,96.78,0v-21.45Z" fill="#ffda46" fill-rule="evenodd"/>
    <path id="Path_310" data-name="Path 310" d="M981.52,1984.12v-324.9H700v324.9Z" fill="#ffffff" fill-rule="evenodd"/>
    <path id="Path_311" data-name="Path 311" d="M1868.35,1632.55v399.69a48.39,48.39,0,0,0,96.78,0V1611.11a48.39,48.39,0,0,0-96.78,0v21.44Z" fill="#ffda46" fill-rule="evenodd"/>
    <path id="Path_312" data-name="Path 312" d="M2018.48,1659.22v324.9H2300v-324.9Z" fill="#ffffff" fill-rule="evenodd"/>
  </g>
</svg>
