<?xml version="1.0" encoding="iso-8859-1"?>
<!-- Generated by IcoMoon.io -->
<svg version="1.1" xmlns="http://www.w3.org/2000/svg" xmlns:xlink="http://www.w3.org/1999/xlink" width="512" height="512" viewBox="0 0 512 512">
  <g>
    <path d="M154.071 113.193h203.888v214.917h-203.888v-214.917z" fill="#bb99ff" />
    <path d="M242.678 11.848h26.644v90.624h-26.644v-90.624z" fill="#bb99ff" />
    <path d="M282.757 66.489h26.665v35.984h-26.665v-35.983z" fill="#bb99ff" />
    <path d="M202.578 66.489h26.665v35.984h-26.665v-35.983z" fill="#bb99ff" />
    <path d="M120.197 342.528h271.606v27.259h-271.606v-27.259z" fill="#bb99ff" />
    <path d="M178.678 360.653l-57.754 139.5 22.313-0.103 54.559-131.461z" fill="#bb99ff" />
    <path d="M314.204 368.589l54.579 131.461 22.897-0.317-58.358-139.079z" fill="#bb99ff" />
    <path d="M245.678 368.906h20.706v127.375h-20.706v-127.375z" fill="#bb99ff" />
    <path d="M133.918 113.49h244.183v16.425h-244.183v-16.425z" fill="#bb99ff" />
    <path d="M133.918 311.767h244.183v16.425h-244.183v-16.425z" fill="#bb99ff" />
  </g>
</svg>
